<?xml version="1.0" encoding="UTF-8" standalone="no"?>
<!DOCTYPE svg PUBLIC "-//W3C//DTD SVG 1.1//EN" "http://www.w3.org/Graphics/SVG/1.1/DTD/svg11.dtd">
<svg width="100%" height="100%" viewBox="0 0 24 24" version="1.1" xmlns="http://www.w3.org/2000/svg" xmlns:xlink="http://www.w3.org/1999/xlink" xml:space="preserve" xmlns:serif="http://www.serif.com/" style="fill-rule:evenodd;clip-rule:evenodd;stroke-linejoin:round;stroke-miterlimit:2;">
    <path d="M20.317,4.37C18.761,3.656 17.119,3.146 15.432,2.855C15.401,2.849 15.369,2.864 15.353,2.892C15.142,3.267 14.909,3.756 14.745,4.141C12.9,3.865 11.065,3.865 9.258,4.141C9.095,3.748 8.852,3.267 8.641,2.892C8.625,2.864 8.593,2.85 8.562,2.855C6.875,3.146 5.233,3.655 3.677,4.37C3.664,4.375 3.652,4.385 3.645,4.397C0.533,9.046 -0.319,13.58 0.099,18.058C0.102,18.08 0.113,18.1 0.13,18.114C2.183,19.622 4.172,20.537 6.123,21.143C6.154,21.153 6.188,21.142 6.208,21.116C6.669,20.485 7.081,19.82 7.433,19.122C7.439,19.111 7.442,19.099 7.442,19.087C7.442,19.055 7.422,19.027 7.392,19.016C6.739,18.768 6.118,18.466 5.52,18.124C5.496,18.11 5.482,18.084 5.482,18.057C5.482,18.033 5.493,18.01 5.512,17.996C5.638,17.902 5.764,17.804 5.884,17.704C5.906,17.686 5.936,17.682 5.962,17.694C9.889,19.487 14.142,19.487 18.023,17.694C18.049,17.682 18.079,17.685 18.101,17.703C18.222,17.802 18.347,17.902 18.474,17.996C18.494,18.01 18.505,18.033 18.505,18.057C18.505,18.084 18.491,18.109 18.468,18.123C17.869,18.473 17.243,18.771 16.595,19.015C16.565,19.026 16.545,19.055 16.545,19.086C16.545,19.099 16.548,19.111 16.554,19.122C16.914,19.82 17.326,20.484 17.779,21.115C17.798,21.141 17.832,21.153 17.863,21.143C19.824,20.537 21.813,19.621 23.865,18.114C23.883,18.101 23.895,18.081 23.897,18.059C24.397,12.882 23.059,8.385 20.348,4.398C20.342,4.385 20.33,4.375 20.317,4.37L20.317,4.37ZM8.02,15.331C6.837,15.331 5.863,14.245 5.863,12.912C5.863,11.579 6.819,10.493 8.02,10.493C9.231,10.493 10.196,11.589 10.177,12.912C10.177,14.246 9.221,15.331 8.02,15.331ZM15.995,15.331C14.812,15.331 13.838,14.245 13.838,12.912C13.838,11.579 14.793,10.493 15.995,10.493C17.206,10.493 18.171,11.589 18.152,12.912C18.152,14.246 17.206,15.331 15.995,15.331Z" style="fill:rgb(88,101,242);fill-rule:nonzero;"/>
</svg>
